<mxfile host="65bd71144e" modified="2020-12-09T10:22:38.414Z" agent="5.0 (Windows NT 10.0; Win64; x64) AppleWebKit/537.36 (KHTML, like Gecko) Code/1.51.1 Chrome/83.0.4103.122 Electron/9.3.3 Safari/537.36" etag="dXarg-ZwLEAbvl5JsmDu" version="13.10.0" type="embed">
    <diagram id="C5RBs43oDa-KdzZeNtuy" name="Page-1">
        <mxGraphModel dx="2836" dy="2840" grid="1" gridSize="10" guides="1" tooltips="1" connect="1" arrows="1" fold="1" page="1" pageScale="1" pageWidth="827" pageHeight="1169" background="none" math="0" shadow="0">
            <root>
                <mxCell id="WIyWlLk6GJQsqaUBKTNV-0"/>
                <mxCell id="WIyWlLk6GJQsqaUBKTNV-1" parent="WIyWlLk6GJQsqaUBKTNV-0"/>
                <mxCell id="4bSFwoXITz4eCAtQC8hv-157" value="" style="rounded=0;whiteSpace=wrap;html=1;labelBackgroundColor=#FFFF21;fillColor=#fff2cc;strokeColor=#d6b656;" parent="WIyWlLk6GJQsqaUBKTNV-1" vertex="1">
                    <mxGeometry x="460" y="-270" width="730" height="370" as="geometry"/>
                </mxCell>
                <mxCell id="4bSFwoXITz4eCAtQC8hv-146" value="" style="rounded=0;whiteSpace=wrap;html=1;labelBackgroundColor=#FFFF21;fillColor=#f5f5f5;strokeColor=#666666;fontColor=#333333;" parent="WIyWlLk6GJQsqaUBKTNV-1" vertex="1">
                    <mxGeometry x="-20" y="-40" width="380" height="1190" as="geometry"/>
                </mxCell>
                <mxCell id="4bSFwoXITz4eCAtQC8hv-4" value="" style="edgeStyle=orthogonalEdgeStyle;rounded=0;orthogonalLoop=1;jettySize=auto;html=1;" parent="WIyWlLk6GJQsqaUBKTNV-1" source="zkfFHV4jXpPFQw0GAbJ--0" target="4bSFwoXITz4eCAtQC8hv-0" edge="1">
                    <mxGeometry relative="1" as="geometry"/>
                </mxCell>
                <mxCell id="4bSFwoXITz4eCAtQC8hv-28" value="Models to be Synchronized&amp;nbsp;" style="edgeLabel;html=1;align=center;verticalAlign=middle;resizable=0;points=[];" parent="4bSFwoXITz4eCAtQC8hv-4" vertex="1" connectable="0">
                    <mxGeometry x="-0.3" y="1" relative="1" as="geometry">
                        <mxPoint as="offset"/>
                    </mxGeometry>
                </mxCell>
                <mxCell id="zkfFHV4jXpPFQw0GAbJ--0" value="Config Stage" style="swimlane;fontStyle=2;align=center;verticalAlign=top;childLayout=stackLayout;horizontal=1;startSize=26;horizontalStack=0;resizeParent=1;resizeLast=0;collapsible=1;marginBottom=0;rounded=0;shadow=0;strokeWidth=1;" parent="WIyWlLk6GJQsqaUBKTNV-1" vertex="1">
                    <mxGeometry x="60" y="50" width="250" height="146" as="geometry">
                        <mxRectangle x="230" y="140" width="160" height="26" as="alternateBounds"/>
                    </mxGeometry>
                </mxCell>
                <mxCell id="zkfFHV4jXpPFQw0GAbJ--4" value="" style="line;html=1;strokeWidth=1;align=left;verticalAlign=middle;spacingTop=-1;spacingLeft=3;spacingRight=3;rotatable=0;labelPosition=right;points=[];portConstraint=eastwest;" parent="zkfFHV4jXpPFQw0GAbJ--0" vertex="1">
                    <mxGeometry y="26" width="250" height="8" as="geometry"/>
                </mxCell>
                <mxCell id="zkfFHV4jXpPFQw0GAbJ--5" value="+ prepare_run()" style="text;align=left;verticalAlign=top;spacingLeft=4;spacingRight=4;overflow=hidden;rotatable=0;points=[[0,0.5],[1,0.5]];portConstraint=eastwest;" parent="zkfFHV4jXpPFQw0GAbJ--0" vertex="1">
                    <mxGeometry y="34" width="250" height="26" as="geometry"/>
                </mxCell>
                <mxCell id="4bSFwoXITz4eCAtQC8hv-65" value="+ wrap_up_run()" style="text;align=left;verticalAlign=top;spacingLeft=4;spacingRight=4;overflow=hidden;rotatable=0;points=[[0,0.5],[1,0.5]];portConstraint=eastwest;" parent="zkfFHV4jXpPFQw0GAbJ--0" vertex="1">
                    <mxGeometry y="60" width="250" height="26" as="geometry"/>
                </mxCell>
                <mxCell id="o-vHsBZd7FeyKtx5TLec-1" value="Routine Runs Config" style="swimlane;fontStyle=0;childLayout=stackLayout;horizontal=1;startSize=26;horizontalStack=0;resizeParent=1;resizeParentMax=0;resizeLast=0;collapsible=1;marginBottom=0;" parent="WIyWlLk6GJQsqaUBKTNV-1" vertex="1">
                    <mxGeometry x="490" y="-54" width="360" height="104" as="geometry"/>
                </mxCell>
                <mxCell id="o-vHsBZd7FeyKtx5TLec-2" value="ROUTINE_P_G_CC" style="text;align=left;verticalAlign=top;spacingLeft=4;spacingRight=4;overflow=hidden;rotatable=0;points=[[0,0.5],[1,0.5]];portConstraint=eastwest;fillColor=#d5e8d4;strokeColor=#82b366;" parent="o-vHsBZd7FeyKtx5TLec-1" vertex="1">
                    <mxGeometry y="26" width="360" height="26" as="geometry"/>
                </mxCell>
                <mxCell id="o-vHsBZd7FeyKtx5TLec-3" value="ROUTINE_EVA2_CP&#10;" style="text;align=left;verticalAlign=top;spacingLeft=4;spacingRight=4;overflow=hidden;rotatable=0;points=[[0,0.5],[1,0.5]];portConstraint=eastwest;fillColor=#d5e8d4;strokeColor=#82b366;" parent="o-vHsBZd7FeyKtx5TLec-1" vertex="1">
                    <mxGeometry y="52" width="360" height="26" as="geometry"/>
                </mxCell>
                <mxCell id="o-vHsBZd7FeyKtx5TLec-4" value="ROUTINE_BMW_TR" style="text;strokeColor=#82b366;fillColor=#d5e8d4;align=left;verticalAlign=top;spacingLeft=4;spacingRight=4;overflow=hidden;rotatable=0;points=[[0,0.5],[1,0.5]];portConstraint=eastwest;" parent="o-vHsBZd7FeyKtx5TLec-1" vertex="1">
                    <mxGeometry y="78" width="360" height="26" as="geometry"/>
                </mxCell>
                <mxCell id="4bSFwoXITz4eCAtQC8hv-9" value="" style="edgeStyle=orthogonalEdgeStyle;rounded=0;orthogonalLoop=1;jettySize=auto;html=1;" parent="WIyWlLk6GJQsqaUBKTNV-1" source="4bSFwoXITz4eCAtQC8hv-0" target="4bSFwoXITz4eCAtQC8hv-5" edge="1">
                    <mxGeometry relative="1" as="geometry"/>
                </mxCell>
                <mxCell id="4bSFwoXITz4eCAtQC8hv-0" value="Sync Stage" style="swimlane;fontStyle=2;align=center;verticalAlign=top;childLayout=stackLayout;horizontal=1;startSize=26;horizontalStack=0;resizeParent=1;resizeLast=0;collapsible=1;marginBottom=0;rounded=0;shadow=0;strokeWidth=1;" parent="WIyWlLk6GJQsqaUBKTNV-1" vertex="1">
                    <mxGeometry x="60" y="230" width="250" height="100" as="geometry">
                        <mxRectangle x="230" y="140" width="160" height="26" as="alternateBounds"/>
                    </mxGeometry>
                </mxCell>
                <mxCell id="4bSFwoXITz4eCAtQC8hv-2" value="" style="line;html=1;strokeWidth=1;align=left;verticalAlign=middle;spacingTop=-1;spacingLeft=3;spacingRight=3;rotatable=0;labelPosition=right;points=[];portConstraint=eastwest;" parent="4bSFwoXITz4eCAtQC8hv-0" vertex="1">
                    <mxGeometry y="26" width="250" height="8" as="geometry"/>
                </mxCell>
                <mxCell id="4bSFwoXITz4eCAtQC8hv-3" value="+ sync_models(path)" style="text;align=left;verticalAlign=top;spacingLeft=4;spacingRight=4;overflow=hidden;rotatable=0;points=[[0,0.5],[1,0.5]];portConstraint=eastwest;" parent="4bSFwoXITz4eCAtQC8hv-0" vertex="1">
                    <mxGeometry y="34" width="250" height="26" as="geometry"/>
                </mxCell>
                <mxCell id="4bSFwoXITz4eCAtQC8hv-14" value="Models to be Tested&lt;br&gt;" style="edgeStyle=orthogonalEdgeStyle;rounded=0;orthogonalLoop=1;jettySize=auto;html=1;" parent="WIyWlLk6GJQsqaUBKTNV-1" source="4bSFwoXITz4eCAtQC8hv-5" target="4bSFwoXITz4eCAtQC8hv-10" edge="1">
                    <mxGeometry relative="1" as="geometry"/>
                </mxCell>
                <mxCell id="4bSFwoXITz4eCAtQC8hv-5" value="Diff Stage" style="swimlane;fontStyle=2;align=center;verticalAlign=top;childLayout=stackLayout;horizontal=1;startSize=26;horizontalStack=0;resizeParent=1;resizeLast=0;collapsible=1;marginBottom=0;rounded=0;shadow=0;strokeWidth=1;" parent="WIyWlLk6GJQsqaUBKTNV-1" vertex="1">
                    <mxGeometry x="60" y="390" width="250" height="138" as="geometry">
                        <mxRectangle x="230" y="140" width="160" height="26" as="alternateBounds"/>
                    </mxGeometry>
                </mxCell>
                <mxCell id="4bSFwoXITz4eCAtQC8hv-7" value="" style="line;html=1;strokeWidth=1;align=left;verticalAlign=middle;spacingTop=-1;spacingLeft=3;spacingRight=3;rotatable=0;labelPosition=right;points=[];portConstraint=eastwest;" parent="4bSFwoXITz4eCAtQC8hv-5" vertex="1">
                    <mxGeometry y="26" width="250" height="8" as="geometry"/>
                </mxCell>
                <mxCell id="4bSFwoXITz4eCAtQC8hv-62" value="+ report_exists(report) -&gt; bool&#10;" style="text;strokeColor=none;fillColor=none;align=left;verticalAlign=top;spacingLeft=4;spacingRight=4;overflow=hidden;rotatable=0;points=[[0,0.5],[1,0.5]];portConstraint=eastwest;" parent="4bSFwoXITz4eCAtQC8hv-5" vertex="1">
                    <mxGeometry y="34" width="250" height="26" as="geometry"/>
                </mxCell>
                <mxCell id="4bSFwoXITz4eCAtQC8hv-64" value="+ report_on_server(report) -&gt; bool&#10;" style="text;strokeColor=none;fillColor=none;align=left;verticalAlign=top;spacingLeft=4;spacingRight=4;overflow=hidden;rotatable=0;points=[[0,0.5],[1,0.5]];portConstraint=eastwest;" parent="4bSFwoXITz4eCAtQC8hv-5" vertex="1">
                    <mxGeometry y="60" width="250" height="26" as="geometry"/>
                </mxCell>
                <mxCell id="4bSFwoXITz4eCAtQC8hv-63" value="+ report_up_to_date(report) -&gt; bool&#10;" style="text;strokeColor=none;fillColor=none;align=left;verticalAlign=top;spacingLeft=4;spacingRight=4;overflow=hidden;rotatable=0;points=[[0,0.5],[1,0.5]];portConstraint=eastwest;" parent="4bSFwoXITz4eCAtQC8hv-5" vertex="1">
                    <mxGeometry y="86" width="250" height="26" as="geometry"/>
                </mxCell>
                <mxCell id="4bSFwoXITz4eCAtQC8hv-19" value="" style="edgeStyle=orthogonalEdgeStyle;rounded=0;orthogonalLoop=1;jettySize=auto;html=1;" parent="WIyWlLk6GJQsqaUBKTNV-1" source="4bSFwoXITz4eCAtQC8hv-10" target="4bSFwoXITz4eCAtQC8hv-15" edge="1">
                    <mxGeometry relative="1" as="geometry"/>
                </mxCell>
                <mxCell id="4bSFwoXITz4eCAtQC8hv-27" value="XML Reports&lt;br&gt;" style="edgeLabel;html=1;align=center;verticalAlign=middle;resizable=0;points=[];" parent="4bSFwoXITz4eCAtQC8hv-19" vertex="1" connectable="0">
                    <mxGeometry x="-0.2375" y="-3" relative="1" as="geometry">
                        <mxPoint as="offset"/>
                    </mxGeometry>
                </mxCell>
                <mxCell id="4bSFwoXITz4eCAtQC8hv-10" value="Test Stage&#10;" style="swimlane;fontStyle=2;align=center;verticalAlign=top;childLayout=stackLayout;horizontal=1;startSize=26;horizontalStack=0;resizeParent=1;resizeLast=0;collapsible=1;marginBottom=0;rounded=0;shadow=0;strokeWidth=1;" parent="WIyWlLk6GJQsqaUBKTNV-1" vertex="1">
                    <mxGeometry x="60" y="590" width="250" height="138" as="geometry">
                        <mxRectangle x="230" y="140" width="160" height="26" as="alternateBounds"/>
                    </mxGeometry>
                </mxCell>
                <mxCell id="4bSFwoXITz4eCAtQC8hv-11" value="Name" style="text;align=left;verticalAlign=top;spacingLeft=4;spacingRight=4;overflow=hidden;rotatable=0;points=[[0,0.5],[1,0.5]];portConstraint=eastwest;" parent="4bSFwoXITz4eCAtQC8hv-10" vertex="1">
                    <mxGeometry y="26" width="250" height="26" as="geometry"/>
                </mxCell>
                <mxCell id="4bSFwoXITz4eCAtQC8hv-12" value="" style="line;html=1;strokeWidth=1;align=left;verticalAlign=middle;spacingTop=-1;spacingLeft=3;spacingRight=3;rotatable=0;labelPosition=right;points=[];portConstraint=eastwest;" parent="4bSFwoXITz4eCAtQC8hv-10" vertex="1">
                    <mxGeometry y="52" width="250" height="8" as="geometry"/>
                </mxCell>
                <mxCell id="4bSFwoXITz4eCAtQC8hv-13" value="+ test()" style="text;align=left;verticalAlign=top;spacingLeft=4;spacingRight=4;overflow=hidden;rotatable=0;points=[[0,0.5],[1,0.5]];portConstraint=eastwest;" parent="4bSFwoXITz4eCAtQC8hv-10" vertex="1">
                    <mxGeometry y="60" width="250" height="26" as="geometry"/>
                </mxCell>
                <mxCell id="4bSFwoXITz4eCAtQC8hv-24" value="" style="edgeStyle=orthogonalEdgeStyle;rounded=0;orthogonalLoop=1;jettySize=auto;html=1;" parent="WIyWlLk6GJQsqaUBKTNV-1" source="4bSFwoXITz4eCAtQC8hv-15" target="4bSFwoXITz4eCAtQC8hv-20" edge="1">
                    <mxGeometry relative="1" as="geometry"/>
                </mxCell>
                <mxCell id="4bSFwoXITz4eCAtQC8hv-15" value="Post-Processing Stage" style="swimlane;fontStyle=2;align=center;verticalAlign=top;childLayout=stackLayout;horizontal=1;startSize=26;horizontalStack=0;resizeParent=1;resizeLast=0;collapsible=1;marginBottom=0;rounded=0;shadow=0;strokeWidth=1;" parent="WIyWlLk6GJQsqaUBKTNV-1" vertex="1">
                    <mxGeometry x="60" y="770" width="250" height="112" as="geometry">
                        <mxRectangle x="230" y="140" width="160" height="26" as="alternateBounds"/>
                    </mxGeometry>
                </mxCell>
                <mxCell id="4bSFwoXITz4eCAtQC8hv-16" value="Name" style="text;align=left;verticalAlign=top;spacingLeft=4;spacingRight=4;overflow=hidden;rotatable=0;points=[[0,0.5],[1,0.5]];portConstraint=eastwest;" parent="4bSFwoXITz4eCAtQC8hv-15" vertex="1">
                    <mxGeometry y="26" width="250" height="26" as="geometry"/>
                </mxCell>
                <mxCell id="4bSFwoXITz4eCAtQC8hv-92" value="Name" style="text;align=left;verticalAlign=top;spacingLeft=4;spacingRight=4;overflow=hidden;rotatable=0;points=[[0,0.5],[1,0.5]];portConstraint=eastwest;" parent="4bSFwoXITz4eCAtQC8hv-15" vertex="1">
                    <mxGeometry y="52" width="250" height="26" as="geometry"/>
                </mxCell>
                <mxCell id="4bSFwoXITz4eCAtQC8hv-17" value="" style="line;html=1;strokeWidth=1;align=left;verticalAlign=middle;spacingTop=-1;spacingLeft=3;spacingRight=3;rotatable=0;labelPosition=right;points=[];portConstraint=eastwest;" parent="4bSFwoXITz4eCAtQC8hv-15" vertex="1">
                    <mxGeometry y="78" width="250" height="8" as="geometry"/>
                </mxCell>
                <mxCell id="4bSFwoXITz4eCAtQC8hv-20" value="Commit Stage (actually Diff Stage)" style="swimlane;fontStyle=2;align=center;verticalAlign=top;childLayout=stackLayout;horizontal=1;startSize=26;horizontalStack=0;resizeParent=1;resizeLast=0;collapsible=1;marginBottom=0;rounded=0;shadow=0;strokeWidth=1;" parent="WIyWlLk6GJQsqaUBKTNV-1" vertex="1">
                    <mxGeometry x="60" y="950" width="250" height="100" as="geometry">
                        <mxRectangle x="230" y="140" width="160" height="26" as="alternateBounds"/>
                    </mxGeometry>
                </mxCell>
                <mxCell id="4bSFwoXITz4eCAtQC8hv-21" value="Name" style="text;align=left;verticalAlign=top;spacingLeft=4;spacingRight=4;overflow=hidden;rotatable=0;points=[[0,0.5],[1,0.5]];portConstraint=eastwest;" parent="4bSFwoXITz4eCAtQC8hv-20" vertex="1">
                    <mxGeometry y="26" width="250" height="26" as="geometry"/>
                </mxCell>
                <mxCell id="4bSFwoXITz4eCAtQC8hv-22" value="" style="line;html=1;strokeWidth=1;align=left;verticalAlign=middle;spacingTop=-1;spacingLeft=3;spacingRight=3;rotatable=0;labelPosition=right;points=[];portConstraint=eastwest;" parent="4bSFwoXITz4eCAtQC8hv-20" vertex="1">
                    <mxGeometry y="52" width="250" height="8" as="geometry"/>
                </mxCell>
                <mxCell id="4bSFwoXITz4eCAtQC8hv-23" value="Purchase Parking Pass" style="text;align=left;verticalAlign=top;spacingLeft=4;spacingRight=4;overflow=hidden;rotatable=0;points=[[0,0.5],[1,0.5]];portConstraint=eastwest;" parent="4bSFwoXITz4eCAtQC8hv-20" vertex="1">
                    <mxGeometry y="60" width="250" height="26" as="geometry"/>
                </mxCell>
                <mxCell id="4bSFwoXITz4eCAtQC8hv-25" value="" style="endArrow=classic;html=1;exitX=0.5;exitY=1;exitDx=0;exitDy=0;entryX=0.532;entryY=-0.012;entryDx=0;entryDy=0;entryPerimeter=0;" parent="WIyWlLk6GJQsqaUBKTNV-1" source="4bSFwoXITz4eCAtQC8hv-20" target="zkfFHV4jXpPFQw0GAbJ--0" edge="1">
                    <mxGeometry width="50" height="50" relative="1" as="geometry">
                        <mxPoint x="440" y="800" as="sourcePoint"/>
                        <mxPoint x="190" y="10" as="targetPoint"/>
                        <Array as="points">
                            <mxPoint x="185" y="1110"/>
                            <mxPoint x="20" y="1110"/>
                            <mxPoint x="20" y="530"/>
                            <mxPoint x="20" y="10"/>
                            <mxPoint x="193" y="10"/>
                        </Array>
                    </mxGeometry>
                </mxCell>
                <mxCell id="4bSFwoXITz4eCAtQC8hv-29" value="" style="endArrow=classic;startArrow=classic;html=1;entryX=0.001;entryY=0.099;entryDx=0;entryDy=0;entryPerimeter=0;exitX=1.002;exitY=0.13;exitDx=0;exitDy=0;exitPerimeter=0;" parent="WIyWlLk6GJQsqaUBKTNV-1" source="zkfFHV4jXpPFQw0GAbJ--0" target="o-vHsBZd7FeyKtx5TLec-1" edge="1">
                    <mxGeometry width="50" height="50" relative="1" as="geometry">
                        <mxPoint x="530" y="280" as="sourcePoint"/>
                        <mxPoint x="580" y="230" as="targetPoint"/>
                    </mxGeometry>
                </mxCell>
                <mxCell id="4bSFwoXITz4eCAtQC8hv-34" value="" style="group" parent="WIyWlLk6GJQsqaUBKTNV-1" vertex="1" connectable="0">
                    <mxGeometry x="420" y="190" width="490" height="310" as="geometry"/>
                </mxCell>
                <mxCell id="4bSFwoXITz4eCAtQC8hv-35" value="" style="group;fillColor=#d5e8d4;strokeColor=#82b366;" parent="4bSFwoXITz4eCAtQC8hv-34" vertex="1" connectable="0">
                    <mxGeometry y="-10" width="490" height="310" as="geometry"/>
                </mxCell>
                <mxCell id="4bSFwoXITz4eCAtQC8hv-32" value="" style="rounded=0;whiteSpace=wrap;html=1;fillColor=#fff2cc;strokeColor=#d6b656;" parent="4bSFwoXITz4eCAtQC8hv-35" vertex="1">
                    <mxGeometry width="490" height="310" as="geometry"/>
                </mxCell>
                <mxCell id="4bSFwoXITz4eCAtQC8hv-33" value="Utility Handlers&lt;br&gt;" style="text;html=1;strokeColor=none;fillColor=none;align=center;verticalAlign=middle;whiteSpace=wrap;rounded=0;" parent="4bSFwoXITz4eCAtQC8hv-35" vertex="1">
                    <mxGeometry width="168.02232854864437" height="28.92857142857143" as="geometry"/>
                </mxCell>
                <mxCell id="4bSFwoXITz4eCAtQC8hv-45" value="RunConfig" style="html=1;" parent="4bSFwoXITz4eCAtQC8hv-35" vertex="1">
                    <mxGeometry x="29.2280701754386" y="60" width="94.56140350877193" height="30" as="geometry"/>
                </mxCell>
                <mxCell id="4bSFwoXITz4eCAtQC8hv-46" value="MatlabVersion" style="html=1;" parent="4bSFwoXITz4eCAtQC8hv-35" vertex="1">
                    <mxGeometry x="29.2280701754386" y="110" width="94.56140350877193" height="30" as="geometry"/>
                </mxCell>
                <mxCell id="4bSFwoXITz4eCAtQC8hv-47" value="Logger" style="html=1;" parent="4bSFwoXITz4eCAtQC8hv-35" vertex="1">
                    <mxGeometry x="29.2280701754386" y="160" width="94.56140350877193" height="30" as="geometry"/>
                </mxCell>
                <mxCell id="4bSFwoXITz4eCAtQC8hv-123" value="«interface»&lt;br&gt;&lt;b&gt;MksApi&lt;/b&gt;" style="html=1;fillColor=#d5e8d4;strokeColor=#82b366;" parent="4bSFwoXITz4eCAtQC8hv-35" vertex="1">
                    <mxGeometry x="29.230000000000018" y="230" width="160" height="50" as="geometry"/>
                </mxCell>
                <mxCell id="4bSFwoXITz4eCAtQC8hv-124" value="GlobalConfig" style="html=1;" parent="4bSFwoXITz4eCAtQC8hv-35" vertex="1">
                    <mxGeometry x="168.02" y="60" width="131.98" height="50" as="geometry"/>
                </mxCell>
                <mxCell id="4bSFwoXITz4eCAtQC8hv-52" value="&lt;p style=&quot;margin: 0px ; margin-top: 4px ; text-align: center ; text-decoration: underline&quot;&gt;&lt;b&gt;Config: Json&lt;/b&gt;&lt;/p&gt;&lt;hr&gt;&lt;p style=&quot;margin: 0px ; margin-left: 8px&quot;&gt;name = &quot;ROUTINE_P_G_CC&quot;&lt;br&gt;sync = &quot;C:\Path\To\Modules&quot;&lt;br&gt;modules = [&lt;/p&gt;&lt;p style=&quot;margin: 0px ; margin-left: 8px&quot;&gt;&quot;C:\Module1.mdl&quot;,&lt;/p&gt;&lt;p style=&quot;margin: 0px ; margin-left: 8px&quot;&gt;&quot;C:\Module2.mdl&quot;,&lt;/p&gt;&lt;p style=&quot;margin: 0px ; margin-left: 8px&quot;&gt;&quot;C:\Module3.mdl&quot;&lt;/p&gt;&lt;p style=&quot;margin: 0px ; margin-left: 8px&quot;&gt;]&lt;/p&gt;&lt;p style=&quot;margin: 0px ; margin-left: 8px&quot;&gt;&amp;lt;special flags&amp;gt;: debug, overwrite&lt;/p&gt;" style="verticalAlign=top;align=left;overflow=fill;fontSize=12;fontFamily=Helvetica;html=1;fillColor=#d5e8d4;strokeColor=#82b366;" parent="WIyWlLk6GJQsqaUBKTNV-1" vertex="1">
                    <mxGeometry x="890" y="-244" width="240" height="166" as="geometry"/>
                </mxCell>
                <mxCell id="4bSFwoXITz4eCAtQC8hv-53" value="" style="edgeStyle=orthogonalEdgeStyle;rounded=0;orthogonalLoop=1;jettySize=auto;html=1;entryX=0;entryY=0.25;entryDx=0;entryDy=0;" parent="WIyWlLk6GJQsqaUBKTNV-1" source="o-vHsBZd7FeyKtx5TLec-2" target="4bSFwoXITz4eCAtQC8hv-52" edge="1">
                    <mxGeometry relative="1" as="geometry"/>
                </mxCell>
                <mxCell id="4bSFwoXITz4eCAtQC8hv-66" value="MatlabFswProcess" style="swimlane;fontStyle=1;align=center;verticalAlign=top;childLayout=stackLayout;horizontal=1;startSize=26;horizontalStack=0;resizeParent=1;resizeParentMax=0;resizeLast=0;collapsible=1;marginBottom=0;" parent="WIyWlLk6GJQsqaUBKTNV-1" vertex="1">
                    <mxGeometry x="430" y="540" width="230" height="216" as="geometry"/>
                </mxCell>
                <mxCell id="4bSFwoXITz4eCAtQC8hv-67" value="+ starting_path" style="text;strokeColor=none;fillColor=none;align=left;verticalAlign=top;spacingLeft=4;spacingRight=4;overflow=hidden;rotatable=0;points=[[0,0.5],[1,0.5]];portConstraint=eastwest;" parent="4bSFwoXITz4eCAtQC8hv-66" vertex="1">
                    <mxGeometry y="26" width="230" height="26" as="geometry"/>
                </mxCell>
                <mxCell id="4bSFwoXITz4eCAtQC8hv-88" value="+ version" style="text;strokeColor=none;fillColor=none;align=left;verticalAlign=top;spacingLeft=4;spacingRight=4;overflow=hidden;rotatable=0;points=[[0,0.5],[1,0.5]];portConstraint=eastwest;" parent="4bSFwoXITz4eCAtQC8hv-66" vertex="1">
                    <mxGeometry y="52" width="230" height="26" as="geometry"/>
                </mxCell>
                <mxCell id="4bSFwoXITz4eCAtQC8hv-68" value="" style="line;strokeWidth=1;fillColor=none;align=left;verticalAlign=middle;spacingTop=-1;spacingLeft=3;spacingRight=3;rotatable=0;labelPosition=right;points=[];portConstraint=eastwest;" parent="4bSFwoXITz4eCAtQC8hv-66" vertex="1">
                    <mxGeometry y="78" width="230" height="8" as="geometry"/>
                </mxCell>
                <mxCell id="4bSFwoXITz4eCAtQC8hv-69" value="+ define_variable(name, value)" style="text;strokeColor=none;fillColor=none;align=left;verticalAlign=top;spacingLeft=4;spacingRight=4;overflow=hidden;rotatable=0;points=[[0,0.5],[1,0.5]];portConstraint=eastwest;" parent="4bSFwoXITz4eCAtQC8hv-66" vertex="1">
                    <mxGeometry y="86" width="230" height="26" as="geometry"/>
                </mxCell>
                <mxCell id="4bSFwoXITz4eCAtQC8hv-70" value="+ define_script(script_path)" style="text;strokeColor=none;fillColor=none;align=left;verticalAlign=top;spacingLeft=4;spacingRight=4;overflow=hidden;rotatable=0;points=[[0,0.5],[1,0.5]];portConstraint=eastwest;" parent="4bSFwoXITz4eCAtQC8hv-66" vertex="1">
                    <mxGeometry y="112" width="230" height="26" as="geometry"/>
                </mxCell>
                <mxCell id="4bSFwoXITz4eCAtQC8hv-83" value="+ start_process()" style="text;strokeColor=none;fillColor=none;align=left;verticalAlign=top;spacingLeft=4;spacingRight=4;overflow=hidden;rotatable=0;points=[[0,0.5],[1,0.5]];portConstraint=eastwest;" parent="4bSFwoXITz4eCAtQC8hv-66" vertex="1">
                    <mxGeometry y="138" width="230" height="26" as="geometry"/>
                </mxCell>
                <mxCell id="4bSFwoXITz4eCAtQC8hv-84" value="+ wait_for_message()" style="text;strokeColor=none;fillColor=none;align=left;verticalAlign=top;spacingLeft=4;spacingRight=4;overflow=hidden;rotatable=0;points=[[0,0.5],[1,0.5]];portConstraint=eastwest;" parent="4bSFwoXITz4eCAtQC8hv-66" vertex="1">
                    <mxGeometry y="164" width="230" height="26" as="geometry"/>
                </mxCell>
                <mxCell id="4bSFwoXITz4eCAtQC8hv-85" value="+ kill_process()" style="text;strokeColor=none;fillColor=none;align=left;verticalAlign=top;spacingLeft=4;spacingRight=4;overflow=hidden;rotatable=0;points=[[0,0.5],[1,0.5]];portConstraint=eastwest;" parent="4bSFwoXITz4eCAtQC8hv-66" vertex="1">
                    <mxGeometry y="190" width="230" height="26" as="geometry"/>
                </mxCell>
                <mxCell id="4bSFwoXITz4eCAtQC8hv-71" value="MxrayMatlabProcess" style="swimlane;fontStyle=1;align=center;verticalAlign=top;childLayout=stackLayout;horizontal=1;startSize=26;horizontalStack=0;resizeParent=1;resizeParentMax=0;resizeLast=0;collapsible=1;marginBottom=0;" parent="WIyWlLk6GJQsqaUBKTNV-1" vertex="1">
                    <mxGeometry x="850" y="560" width="230" height="86" as="geometry"/>
                </mxCell>
                <mxCell id="4bSFwoXITz4eCAtQC8hv-73" value="" style="line;strokeWidth=1;fillColor=none;align=left;verticalAlign=middle;spacingTop=-1;spacingLeft=3;spacingRight=3;rotatable=0;labelPosition=right;points=[];portConstraint=eastwest;" parent="4bSFwoXITz4eCAtQC8hv-71" vertex="1">
                    <mxGeometry y="26" width="230" height="8" as="geometry"/>
                </mxCell>
                <mxCell id="4bSFwoXITz4eCAtQC8hv-86" value="+ wait_for_report(script_path)" style="text;strokeColor=none;fillColor=none;align=left;verticalAlign=top;spacingLeft=4;spacingRight=4;overflow=hidden;rotatable=0;points=[[0,0.5],[1,0.5]];portConstraint=eastwest;" parent="4bSFwoXITz4eCAtQC8hv-71" vertex="1">
                    <mxGeometry y="34" width="230" height="26" as="geometry"/>
                </mxCell>
                <mxCell id="4bSFwoXITz4eCAtQC8hv-148" value="+ get_limits(script_path)" style="text;strokeColor=none;fillColor=none;align=left;verticalAlign=top;spacingLeft=4;spacingRight=4;overflow=hidden;rotatable=0;points=[[0,0.5],[1,0.5]];portConstraint=eastwest;" parent="4bSFwoXITz4eCAtQC8hv-71" vertex="1">
                    <mxGeometry y="60" width="230" height="26" as="geometry"/>
                </mxCell>
                <mxCell id="4bSFwoXITz4eCAtQC8hv-77" value="MxamMatlabProcess" style="swimlane;fontStyle=1;align=center;verticalAlign=top;childLayout=stackLayout;horizontal=1;startSize=26;horizontalStack=0;resizeParent=1;resizeParentMax=0;resizeLast=0;collapsible=1;marginBottom=0;" parent="WIyWlLk6GJQsqaUBKTNV-1" vertex="1">
                    <mxGeometry x="850" y="780" width="230" height="60" as="geometry"/>
                </mxCell>
                <mxCell id="4bSFwoXITz4eCAtQC8hv-79" value="" style="line;strokeWidth=1;fillColor=none;align=left;verticalAlign=middle;spacingTop=-1;spacingLeft=3;spacingRight=3;rotatable=0;labelPosition=right;points=[];portConstraint=eastwest;" parent="4bSFwoXITz4eCAtQC8hv-77" vertex="1">
                    <mxGeometry y="26" width="230" height="8" as="geometry"/>
                </mxCell>
                <mxCell id="4bSFwoXITz4eCAtQC8hv-87" value="+ wait_for_report(reports)" style="text;strokeColor=none;fillColor=none;align=left;verticalAlign=top;spacingLeft=4;spacingRight=4;overflow=hidden;rotatable=0;points=[[0,0.5],[1,0.5]];portConstraint=eastwest;" parent="4bSFwoXITz4eCAtQC8hv-77" vertex="1">
                    <mxGeometry y="34" width="230" height="26" as="geometry"/>
                </mxCell>
                <mxCell id="4bSFwoXITz4eCAtQC8hv-91" value="" style="endArrow=classic;html=1;exitX=1;exitY=0.5;exitDx=0;exitDy=0;entryX=-0.018;entryY=0.047;entryDx=0;entryDy=0;entryPerimeter=0;" parent="WIyWlLk6GJQsqaUBKTNV-1" source="4bSFwoXITz4eCAtQC8hv-13" target="4bSFwoXITz4eCAtQC8hv-66" edge="1">
                    <mxGeometry width="50" height="50" relative="1" as="geometry">
                        <mxPoint x="410" y="680" as="sourcePoint"/>
                        <mxPoint x="460" y="630" as="targetPoint"/>
                    </mxGeometry>
                </mxCell>
                <mxCell id="4bSFwoXITz4eCAtQC8hv-109" value="FswReport" style="swimlane;fontStyle=2;align=center;verticalAlign=top;childLayout=stackLayout;horizontal=1;startSize=26;horizontalStack=0;resizeParent=1;resizeParentMax=0;resizeLast=0;collapsible=1;marginBottom=0;" parent="WIyWlLk6GJQsqaUBKTNV-1" vertex="1">
                    <mxGeometry x="430" y="786" width="160" height="190" as="geometry"/>
                </mxCell>
                <mxCell id="4bSFwoXITz4eCAtQC8hv-113" value="+ source: Path" style="text;strokeColor=none;fillColor=none;align=left;verticalAlign=top;spacingLeft=4;spacingRight=4;overflow=hidden;rotatable=0;points=[[0,0.5],[1,0.5]];portConstraint=eastwest;" parent="4bSFwoXITz4eCAtQC8hv-109" vertex="1">
                    <mxGeometry y="26" width="160" height="26" as="geometry"/>
                </mxCell>
                <mxCell id="4bSFwoXITz4eCAtQC8hv-115" value="+ model_revision: str" style="text;strokeColor=none;fillColor=none;align=left;verticalAlign=top;spacingLeft=4;spacingRight=4;overflow=hidden;rotatable=0;points=[[0,0.5],[1,0.5]];portConstraint=eastwest;" parent="4bSFwoXITz4eCAtQC8hv-109" vertex="1">
                    <mxGeometry y="52" width="160" height="26" as="geometry"/>
                </mxCell>
                <mxCell id="4bSFwoXITz4eCAtQC8hv-111" value="" style="line;strokeWidth=1;fillColor=none;align=left;verticalAlign=middle;spacingTop=-1;spacingLeft=3;spacingRight=3;rotatable=0;labelPosition=right;points=[];portConstraint=eastwest;" parent="4bSFwoXITz4eCAtQC8hv-109" vertex="1">
                    <mxGeometry y="78" width="160" height="8" as="geometry"/>
                </mxCell>
                <mxCell id="4bSFwoXITz4eCAtQC8hv-110" value="+ base: dict" style="text;strokeColor=none;fillColor=none;align=left;verticalAlign=top;spacingLeft=4;spacingRight=4;overflow=hidden;rotatable=0;points=[[0,0.5],[1,0.5]];portConstraint=eastwest;" parent="4bSFwoXITz4eCAtQC8hv-109" vertex="1">
                    <mxGeometry y="86" width="160" height="26" as="geometry"/>
                </mxCell>
                <mxCell id="4bSFwoXITz4eCAtQC8hv-112" value="+ inject_mks_data()" style="text;strokeColor=none;fillColor=none;align=left;verticalAlign=top;spacingLeft=4;spacingRight=4;overflow=hidden;rotatable=0;points=[[0,0.5],[1,0.5]];portConstraint=eastwest;" parent="4bSFwoXITz4eCAtQC8hv-109" vertex="1">
                    <mxGeometry y="112" width="160" height="26" as="geometry"/>
                </mxCell>
                <mxCell id="4bSFwoXITz4eCAtQC8hv-114" value="+ export_json()" style="text;strokeColor=none;fillColor=none;align=left;verticalAlign=top;spacingLeft=4;spacingRight=4;overflow=hidden;rotatable=0;points=[[0,0.5],[1,0.5]];portConstraint=eastwest;" parent="4bSFwoXITz4eCAtQC8hv-109" vertex="1">
                    <mxGeometry y="138" width="160" height="26" as="geometry"/>
                </mxCell>
                <mxCell id="4bSFwoXITz4eCAtQC8hv-120" value="+ export_xlsx()" style="text;strokeColor=none;fillColor=none;align=left;verticalAlign=top;spacingLeft=4;spacingRight=4;overflow=hidden;rotatable=0;points=[[0,0.5],[1,0.5]];portConstraint=eastwest;" parent="4bSFwoXITz4eCAtQC8hv-109" vertex="1">
                    <mxGeometry y="164" width="160" height="26" as="geometry"/>
                </mxCell>
                <mxCell id="4bSFwoXITz4eCAtQC8hv-116" value="" style="endArrow=classic;html=1;exitX=0.997;exitY=0.076;exitDx=0;exitDy=0;exitPerimeter=0;" parent="WIyWlLk6GJQsqaUBKTNV-1" source="4bSFwoXITz4eCAtQC8hv-15" target="4bSFwoXITz4eCAtQC8hv-109" edge="1">
                    <mxGeometry width="50" height="50" relative="1" as="geometry">
                        <mxPoint x="510" y="810" as="sourcePoint"/>
                        <mxPoint x="560" y="760" as="targetPoint"/>
                    </mxGeometry>
                </mxCell>
                <mxCell id="4bSFwoXITz4eCAtQC8hv-121" value="«interface(lib)»&lt;br&gt;&lt;b&gt;FswExcelGenerator&lt;/b&gt;" style="html=1;fillColor=#d5e8d4;strokeColor=#82b366;" parent="WIyWlLk6GJQsqaUBKTNV-1" vertex="1">
                    <mxGeometry x="710" y="1000" width="160" height="50" as="geometry"/>
                </mxCell>
                <mxCell id="4bSFwoXITz4eCAtQC8hv-122" value="" style="endArrow=classic;html=1;exitX=1;exitY=0.5;exitDx=0;exitDy=0;" parent="WIyWlLk6GJQsqaUBKTNV-1" source="4bSFwoXITz4eCAtQC8hv-120" target="4bSFwoXITz4eCAtQC8hv-121" edge="1">
                    <mxGeometry width="50" height="50" relative="1" as="geometry">
                        <mxPoint x="510" y="960" as="sourcePoint"/>
                        <mxPoint x="560" y="910" as="targetPoint"/>
                    </mxGeometry>
                </mxCell>
                <mxCell id="4bSFwoXITz4eCAtQC8hv-129" value="JsonReport" style="html=1;" parent="WIyWlLk6GJQsqaUBKTNV-1" vertex="1">
                    <mxGeometry x="930" y="926" width="210" height="50" as="geometry"/>
                </mxCell>
                <mxCell id="4bSFwoXITz4eCAtQC8hv-130" value="" style="endArrow=classic;startArrow=classic;html=1;exitX=1;exitY=0.5;exitDx=0;exitDy=0;" parent="WIyWlLk6GJQsqaUBKTNV-1" source="4bSFwoXITz4eCAtQC8hv-114" target="4bSFwoXITz4eCAtQC8hv-129" edge="1">
                    <mxGeometry width="50" height="50" relative="1" as="geometry">
                        <mxPoint x="600" y="910" as="sourcePoint"/>
                        <mxPoint x="650" y="860" as="targetPoint"/>
                    </mxGeometry>
                </mxCell>
                <mxCell id="4bSFwoXITz4eCAtQC8hv-160" value="Compatable Both Ways" style="edgeLabel;html=1;align=center;verticalAlign=middle;resizable=0;points=[];" parent="4bSFwoXITz4eCAtQC8hv-130" vertex="1" connectable="0">
                    <mxGeometry x="0.3543" y="1" relative="1" as="geometry">
                        <mxPoint as="offset"/>
                    </mxGeometry>
                </mxCell>
                <mxCell id="4bSFwoXITz4eCAtQC8hv-131" value="XlsxReport" style="html=1;" parent="WIyWlLk6GJQsqaUBKTNV-1" vertex="1">
                    <mxGeometry x="920" y="1000" width="210" height="50" as="geometry"/>
                </mxCell>
                <mxCell id="4bSFwoXITz4eCAtQC8hv-132" value="" style="endArrow=classic;html=1;" parent="WIyWlLk6GJQsqaUBKTNV-1" source="4bSFwoXITz4eCAtQC8hv-121" target="4bSFwoXITz4eCAtQC8hv-131" edge="1">
                    <mxGeometry width="50" height="50" relative="1" as="geometry">
                        <mxPoint x="780" y="1034" as="sourcePoint"/>
                        <mxPoint x="830" y="984" as="targetPoint"/>
                    </mxGeometry>
                </mxCell>
                <mxCell id="4bSFwoXITz4eCAtQC8hv-134" value="MxamReport" style="swimlane;fontStyle=1;align=center;verticalAlign=top;childLayout=stackLayout;horizontal=1;startSize=26;horizontalStack=0;resizeParent=1;resizeParentMax=0;resizeLast=0;collapsible=1;marginBottom=0;" parent="WIyWlLk6GJQsqaUBKTNV-1" vertex="1">
                    <mxGeometry x="430" y="1135" width="160" height="34" as="geometry"/>
                </mxCell>
                <mxCell id="4bSFwoXITz4eCAtQC8hv-136" value="" style="line;strokeWidth=1;fillColor=none;align=left;verticalAlign=middle;spacingTop=-1;spacingLeft=3;spacingRight=3;rotatable=0;labelPosition=right;points=[];portConstraint=eastwest;" parent="4bSFwoXITz4eCAtQC8hv-134" vertex="1">
                    <mxGeometry y="26" width="160" height="8" as="geometry"/>
                </mxCell>
                <mxCell id="4bSFwoXITz4eCAtQC8hv-138" value="MxrayReport" style="swimlane;fontStyle=1;align=center;verticalAlign=top;childLayout=stackLayout;horizontal=1;startSize=26;horizontalStack=0;resizeParent=1;resizeParentMax=0;resizeLast=0;collapsible=1;marginBottom=0;" parent="WIyWlLk6GJQsqaUBKTNV-1" vertex="1">
                    <mxGeometry x="630" y="1140" width="160" height="94" as="geometry"/>
                </mxCell>
                <mxCell id="4bSFwoXITz4eCAtQC8hv-140" value="" style="line;strokeWidth=1;fillColor=none;align=left;verticalAlign=middle;spacingTop=-1;spacingLeft=3;spacingRight=3;rotatable=0;labelPosition=right;points=[];portConstraint=eastwest;" parent="4bSFwoXITz4eCAtQC8hv-138" vertex="1">
                    <mxGeometry y="26" width="160" height="8" as="geometry"/>
                </mxCell>
                <mxCell id="4bSFwoXITz4eCAtQC8hv-150" value="+ apply_limits()" style="text;strokeColor=none;fillColor=none;align=left;verticalAlign=top;spacingLeft=4;spacingRight=4;overflow=hidden;rotatable=0;points=[[0,0.5],[1,0.5]];portConstraint=eastwest;" parent="4bSFwoXITz4eCAtQC8hv-138" vertex="1">
                    <mxGeometry y="34" width="160" height="26" as="geometry"/>
                </mxCell>
                <mxCell id="4bSFwoXITz4eCAtQC8hv-151" value="+ offset_values()" style="text;strokeColor=none;fillColor=none;align=left;verticalAlign=top;spacingLeft=4;spacingRight=4;overflow=hidden;rotatable=0;points=[[0,0.5],[1,0.5]];portConstraint=eastwest;" parent="4bSFwoXITz4eCAtQC8hv-138" vertex="1">
                    <mxGeometry y="60" width="160" height="26" as="geometry"/>
                </mxCell>
                <mxCell id="4bSFwoXITz4eCAtQC8hv-159" value="" style="line;strokeWidth=1;fillColor=none;align=left;verticalAlign=middle;spacingTop=-1;spacingLeft=3;spacingRight=3;rotatable=0;labelPosition=right;points=[];portConstraint=eastwest;" parent="4bSFwoXITz4eCAtQC8hv-138" vertex="1">
                    <mxGeometry y="86" width="160" height="8" as="geometry"/>
                </mxCell>
                <mxCell id="4bSFwoXITz4eCAtQC8hv-147" value="&lt;h1&gt;Pipeline&lt;/h1&gt;" style="text;html=1;strokeColor=none;fillColor=none;align=center;verticalAlign=middle;whiteSpace=wrap;rounded=0;" parent="WIyWlLk6GJQsqaUBKTNV-1" vertex="1">
                    <mxGeometry x="240" y="-30" width="40" height="20" as="geometry"/>
                </mxCell>
                <mxCell id="4bSFwoXITz4eCAtQC8hv-152" value="«interface(lib)»&lt;br&gt;&lt;b&gt;retrying&lt;/b&gt;" style="html=1;fillColor=#f8cecc;strokeColor=#b85450;" parent="WIyWlLk6GJQsqaUBKTNV-1" vertex="1">
                    <mxGeometry x="930" y="692" width="160" height="50" as="geometry"/>
                </mxCell>
                <mxCell id="4bSFwoXITz4eCAtQC8hv-153" value="«interface(lib)»&lt;br&gt;&lt;b&gt;xmlToDict&lt;/b&gt;" style="html=1;fillColor=#f8cecc;strokeColor=#b85450;" parent="WIyWlLk6GJQsqaUBKTNV-1" vertex="1">
                    <mxGeometry x="-210" y="801" width="160" height="50" as="geometry"/>
                </mxCell>
                <mxCell id="4bSFwoXITz4eCAtQC8hv-154" value="" style="endArrow=classic;html=1;exitX=1;exitY=0.75;exitDx=0;exitDy=0;entryX=-0.002;entryY=0.119;entryDx=0;entryDy=0;entryPerimeter=0;" parent="WIyWlLk6GJQsqaUBKTNV-1" source="4bSFwoXITz4eCAtQC8hv-153" target="4bSFwoXITz4eCAtQC8hv-15" edge="1">
                    <mxGeometry width="50" height="50" relative="1" as="geometry">
                        <mxPoint y="840" as="sourcePoint"/>
                        <mxPoint x="50" y="790" as="targetPoint"/>
                    </mxGeometry>
                </mxCell>
                <mxCell id="4bSFwoXITz4eCAtQC8hv-162" value="" style="endArrow=block;dashed=1;endFill=0;endSize=12;html=1;exitX=0.235;exitY=1.051;exitDx=0;exitDy=0;exitPerimeter=0;" parent="WIyWlLk6GJQsqaUBKTNV-1" source="4bSFwoXITz4eCAtQC8hv-120" target="4bSFwoXITz4eCAtQC8hv-134" edge="1">
                    <mxGeometry width="160" relative="1" as="geometry">
                        <mxPoint x="430" y="1070" as="sourcePoint"/>
                        <mxPoint x="590" y="1070" as="targetPoint"/>
                    </mxGeometry>
                </mxCell>
                <mxCell id="4bSFwoXITz4eCAtQC8hv-163" value="" style="endArrow=block;dashed=1;endFill=0;endSize=12;html=1;entryX=0.188;entryY=0;entryDx=0;entryDy=0;entryPerimeter=0;" parent="WIyWlLk6GJQsqaUBKTNV-1" source="4bSFwoXITz4eCAtQC8hv-120" target="4bSFwoXITz4eCAtQC8hv-138" edge="1">
                    <mxGeometry width="160" relative="1" as="geometry">
                        <mxPoint x="590" y="1040" as="sourcePoint"/>
                        <mxPoint x="590.0034556946079" y="1133.67" as="targetPoint"/>
                    </mxGeometry>
                </mxCell>
                <mxCell id="4bSFwoXITz4eCAtQC8hv-165" value="" style="endArrow=block;dashed=1;endFill=0;endSize=12;html=1;entryX=-0.003;entryY=0.085;entryDx=0;entryDy=0;entryPerimeter=0;" parent="WIyWlLk6GJQsqaUBKTNV-1" source="4bSFwoXITz4eCAtQC8hv-66" target="4bSFwoXITz4eCAtQC8hv-71" edge="1">
                    <mxGeometry width="160" relative="1" as="geometry">
                        <mxPoint x="700" y="660" as="sourcePoint"/>
                        <mxPoint x="860" y="660" as="targetPoint"/>
                    </mxGeometry>
                </mxCell>
                <mxCell id="4bSFwoXITz4eCAtQC8hv-166" value="" style="endArrow=block;dashed=1;endFill=0;endSize=12;html=1;entryX=-0.007;entryY=0.094;entryDx=0;entryDy=0;entryPerimeter=0;" parent="WIyWlLk6GJQsqaUBKTNV-1" source="4bSFwoXITz4eCAtQC8hv-66" target="4bSFwoXITz4eCAtQC8hv-77" edge="1">
                    <mxGeometry width="160" relative="1" as="geometry">
                        <mxPoint x="660.69" y="806.1969172882914" as="sourcePoint"/>
                        <mxPoint x="850" y="756" as="targetPoint"/>
                    </mxGeometry>
                </mxCell>
            </root>
        </mxGraphModel>
    </diagram>
</mxfile>